# xmcd CD database file
#
# Track frame offsets:
#	150
#	20545
#	35342
#	51077
#	68017
#	87280
#	103460
#	120285
#	134477
#	155005
#	172597
#
# Disc length: 2496 seconds
#
# Revision: 3
# Processed by: cddbd v1.5.2PL0 Copyright (c) Steve Scherf et al.
# Submitted via: CDex 1.51
#
DISCID=8909be0b
DTITLE=Thrasher Shiver - Thrasher Shiver
DYEAR=1996
DGENRE=Country
TTITLE0=Going, Going, Gone
TTITLE1=All The King's Horses
TTITLE2=Closer
TTITLE3=You And I Belong
TTITLE4=She's The Only One
TTITLE5=Run Like The Wind
TTITLE6=Tradgedy
TTITLE7=Between The Stones And Jones
TTITLE8=The Rails
TTITLE9=That's My Girl
TTITLE10=Be Honest
EXTD=YEAR: 1996
EXTT0=
EXTT1=
EXTT2=
EXTT3=
EXTT4=
EXTT5=
EXTT6=
EXTT7=
EXTT8=
EXTT9=
EXTT10=
PLAYORDER=
